# Blender 5.1.1
# www.blender.org
mtllib SocketOut_Spacer_2.0x1.0.mtl
o SocketOut_Spacer_2.0x1.0
v -0.200000 1.000000 -0.000000
v 0.200000 1.000000 -0.000000
v 0.200000 0.990000 0.010000
v -0.200000 0.990000 0.010000
v 0.200000 0.980000 0.100000
v 0.200000 0.990000 0.090000
v -0.200000 0.990000 0.090000
v -0.200000 0.980000 0.100000
v 0.200000 0.000000 0.100000
v -0.200000 0.000000 0.100000
vn -0.0000 -0.0002 1.0000
vn -0.0000 1.0000 -0.0000
vn -0.0000 -0.0000 1.0000
vn 0.0007 1.0000 -0.0000
vt 0.540000 0.450000
vt 0.540000 0.550000
vt 0.535000 0.550000
vt 0.535000 0.450000
vt 0.490000 0.550000
vt 0.490000 0.450000
vt 0.495000 0.450000
vt 0.495000 0.550000
vt 0.000000 0.450000
vt 0.490000 0.450000
vt 0.490000 0.550000
vt 0.000000 0.550000
s 1
usemtl Wall_Default.004
f 2/1/1 1/2/1 4/3/2 3/4/2
usemtl Wall_SocketOut
f 8/5/3 5/6/3 6/7/2 7/8/4
f 9/9/3 5/10/3 8/11/3 10/12/3
f 3/4/2 4/3/2 7/8/4 6/7/2
