# Blender 5.1.1
# www.blender.org
mtllib SocketOut_CornerOut_Straight_0.35x1.0.mtl
o SocketOut_CornerOut_Straight_0.35x1.0
v 0.030669 -0.000000 0.100000
v 0.250000 -0.000000 0.100000
v 0.030669 0.980000 0.100000
v 0.250000 0.980000 0.100000
v 0.030669 0.990000 0.090000
v 0.250000 0.990000 0.090000
v 0.030669 0.990000 0.010000
v 0.250000 0.990000 0.010000
v 0.030669 1.000000 -0.000000
v 0.250000 1.000000 -0.000000
v 0.000000 -0.000000 0.100000
v 0.000000 0.980000 0.100000
v 0.000000 0.990000 0.090000
v 0.000000 0.990000 0.010000
v 0.000000 1.000000 -0.000000
v -0.030669 -0.000000 0.100000
v -0.250000 -0.000000 0.100000
v -0.030669 0.980000 0.100000
v -0.250000 0.980000 0.100000
v -0.030669 0.990000 0.090000
v -0.250000 0.990000 0.090000
v -0.030669 0.990000 0.010000
v -0.250000 0.990000 0.010000
v -0.030669 1.000000 -0.000000
v -0.250000 1.000000 -0.000000
vn -0.0000 -0.0000 1.0000
vn -0.0000 0.7071 0.7071
vn -0.0000 1.0000 -0.0000
vt 0.223807 1.000000
vt 0.000000 1.000000
vt 0.000000 0.000000
vt 0.223807 0.000000
vt 0.255102 0.223807
vt 0.255102 0.000000
vt 0.265306 0.000000
vt 0.265306 0.223807
vt 0.346939 0.000000
vt 0.346939 0.223807
vt 0.357143 0.000000
vt 0.357143 0.223807
vt 0.255102 0.000000
vt 0.255102 1.000000
vt 0.357143 0.255102
vt 0.346939 0.255102
vt 0.265306 0.255102
vt 0.255102 0.255102
s 0
usemtl Wall_SocketOut.001
f 1/1/1 2/2/1 4/3/1 3/4/1
f 3/5/2 4/6/2 6/7/2 5/8/2
f 5/8/3 6/7/3 8/9/3 7/10/3
f 1/1/1 3/4/1 12/13/1 11/14/1
f 3/5/2 5/8/2 13/17/2 12/18/2
f 5/8/3 7/10/3 14/16/3 13/17/3
f 16/1/1 18/4/1 19/3/1 17/2/1
f 18/5/2 20/8/2 21/7/2 19/6/2
f 20/8/3 22/10/3 23/9/3 21/7/3
f 16/1/1 11/14/1 12/13/1 18/4/1
f 18/5/2 12/18/2 13/17/2 20/8/2
f 20/8/3 13/17/3 14/16/3 22/10/3
usemtl Wall_Default.005
f 7/10/2 8/9/2 10/11/2 9/12/2
f 7/10/2 9/12/2 15/15/2 14/16/2
f 22/10/2 24/12/2 25/11/2 23/9/2
f 22/10/2 14/16/2 15/15/2 24/12/2
