# Blender 4.5.3 LTS
# www.blender.org
mtllib Wall_Window02_2.0x3.0.mtl
o Wall_Window02_2.0x3.0
v 0.500000 2.569737 -0.093724
v -0.500000 0.843916 -0.093724
v -0.500000 2.569737 -0.093724
v 0.500000 0.843916 -0.093724
v 0.456986 0.911798 -0.098887
v 0.456986 2.505307 -0.098887
v -0.456986 2.505307 -0.098887
v -0.456986 0.911798 -0.098887
v 0.462699 0.903459 -0.093724
v 0.462699 2.513646 -0.093724
v -0.462699 2.513646 -0.093724
v -0.462699 0.903459 -0.093724
v 0.500000 0.843916 -0.100000
v -0.500000 0.843916 -0.100000
v 0.416940 0.970368 -0.111980
v 0.416940 2.446736 -0.111980
v -0.416940 2.446736 -0.111980
v -0.416940 0.970368 -0.111980
v 0.456986 0.911798 -0.111980
v 0.456986 2.505307 -0.111980
v -0.456986 2.505307 -0.111980
v -0.456986 0.911798 -0.111980
v 0.413845 0.975847 -0.122390
v 0.413845 2.441257 -0.122390
v -0.413845 2.441257 -0.122390
v -0.413845 0.975847 -0.122390
v -1.000000 3.000000 0.000000
v 1.000000 3.000000 0.000000
v -1.000000 0.000000 0.000000
v 1.000000 0.000000 0.000000
v -0.672610 2.862249 0.000000
v -0.672610 0.522152 0.000000
v 0.672610 2.862249 0.000000
v 0.500000 2.562424 -0.100000
v 0.495000 2.569737 -0.100000
v -0.500000 0.821977 -0.100000
v -0.495000 0.814665 -0.100000
v 0.495000 0.814665 -0.005000
v 0.500000 0.821977 -0.005000
v -0.500000 0.821977 -0.005000
v -0.495000 0.814665 -0.005000
v 0.500000 2.562424 -0.005000
v 0.495000 2.569737 -0.005000
v -0.495000 2.569737 -0.005000
v -0.500000 2.562424 -0.005000
v 0.510000 0.814665 0.000000
v 0.500000 0.800039 0.000000
v -0.500000 2.562424 -0.100000
v -0.500000 0.800039 0.000000
v -0.510000 0.814665 0.000000
v -0.495000 2.569737 -0.100000
v -0.510000 2.569736 0.000000
v -0.500000 2.584363 0.000000
v 0.500000 0.821977 -0.100000
v 0.500000 2.584363 0.000000
v 0.510000 2.569737 0.000000
v 0.495000 0.814665 -0.100000
v 0.672610 0.522152 0.000000
v -0.522093 0.829290 -0.099496
v 0.522094 0.822098 0.036453
v -0.522093 0.822098 0.036453
v 0.522094 0.829290 -0.099496
v 0.522094 0.815920 0.040000
v -0.522093 0.815920 0.040000
v 0.522094 0.789187 0.040000
v -0.522093 0.789187 0.040000
v -0.522093 0.813264 -0.051295
v 0.522094 0.810326 0.031088
v -0.522093 0.810326 0.031088
v 0.522094 0.813264 -0.051295
v 0.522094 0.806568 0.032969
v -0.522093 0.806568 0.032969
v 0.522094 0.789187 0.032969
v -0.522093 0.789187 0.032969
v -0.522093 0.873167 -0.099496
v 0.522094 0.873167 -0.099496
vn -0.0000 1.0000 -0.0000
vn -0.0000 -0.0000 1.0000
vn -0.6705 -0.0000 0.7419
vn 0.6705 -0.0000 0.7419
vn -0.0000 0.5264 0.8502
vn -0.0000 -0.5264 0.8502
vn -0.0000 -1.0000 -0.0000
vn -0.0000 -0.8849 0.4657
vn -1.0000 -0.0000 -0.0000
vn 1.0000 -0.0000 -0.0000
vn 0.9586 -0.0000 0.2849
vn -0.0000 0.8850 0.4657
vn -0.9586 -0.0000 0.2849
vn -0.1683 0.9835 0.0662
vn -0.9929 -0.1157 -0.0284
vn -0.9938 -0.1112 -0.0000
vn -0.1112 0.9938 -0.0001
vn 0.0468 0.9915 0.1218
vn 0.1112 0.9938 -0.0000
vn 0.9964 0.0680 -0.0503
vn 0.9929 -0.1158 -0.0284
vn 0.9938 -0.1112 -0.0000
vn 0.9938 0.1112 -0.0000
vn -0.0468 -0.9915 0.1218
vn 0.1217 -0.9889 0.0854
vn 0.1112 -0.9938 -0.0000
vn -0.1112 -0.9938 -0.0000
vn -0.9929 0.1157 -0.0284
vn -0.9938 0.1112 -0.0000
vn 0.0022 0.0202 0.9998
vn -0.0136 -0.0549 0.9984
vn -0.0395 -0.0320 0.9987
vn 0.0198 -0.0318 0.9993
vn -0.0022 -0.0202 0.9998
vn 0.0136 0.0549 0.9984
vn 0.0395 0.0320 0.9987
vn -0.0198 0.0318 0.9993
vn -0.0000 0.8519 0.5238
vn -0.0000 0.9986 0.0528
vn -0.0000 0.2576 0.9662
vn -0.0000 -0.8413 -0.5406
vn -0.0000 -0.9994 -0.0356
vn -0.0000 -0.2300 -0.9732
vn -0.0000 -0.0000 -1.0000
vt 0.000000 0.000000
vt 0.506253 0.393173
vt 0.527805 0.408220
vt 0.500727 0.419091
vt 0.495988 0.417630
vt 0.178520 0.392821
vt 0.507033 0.414337
vt 0.181785 0.410211
vt 0.160127 0.797294
vt 0.158010 0.404968
vt 0.181146 0.411924
vt 0.184668 0.783239
vt 0.515263 0.807826
vt 0.181232 0.807141
vt 0.180184 0.788013
vt 0.515052 0.788371
vt 0.188905 0.788527
vt 0.529145 0.799889
vt 0.507544 0.786707
vt 0.189928 0.421229
vt 0.533725 0.399487
vt 0.512259 0.387989
vt 0.578913 0.330392
vt 0.170921 0.384795
vt 0.151881 0.396333
vt 0.105877 0.327832
vt 0.154112 0.800252
vt 0.174107 0.814040
vt 0.106514 0.870156
vt 0.520525 0.814336
vt 0.535202 0.801269
vt 0.584388 0.871205
vt 0.501410 0.786580
vt 0.691677 0.999917
vt 0.679298 0.000083
vt 0.002601 0.000178
vt 0.000083 0.999917
s 0
usemtl Window_Frame
f 8/1/1 5/1/1 19/1/1 22/1/1
f 10/1/2 9/1/2 4/1/2 1/1/2
f 12/1/2 11/1/2 3/1/2 2/1/2
f 9/1/2 12/1/2 2/1/2 4/1/2
f 11/1/2 10/1/2 1/1/2 3/1/2
f 6/1/3 5/1/3 9/1/3 10/1/3
f 8/1/4 7/1/4 11/1/4 12/1/4
f 5/1/5 8/1/5 12/1/5 9/1/5
f 7/1/6 6/1/6 10/1/6 11/1/6
f 4/1/7 2/1/7 14/1/7 13/1/7
f 16/1/8 17/1/8 25/1/8 24/1/8
f 5/1/9 6/1/9 20/1/9 19/1/9
f 6/1/7 7/1/7 21/1/7 20/1/7
f 7/1/10 8/1/10 22/1/10 21/1/10
f 16/1/2 15/1/2 19/1/2 20/1/2
f 18/1/2 17/1/2 21/1/2 22/1/2
f 15/1/2 18/1/2 22/1/2 19/1/2
f 17/1/2 16/1/2 20/1/2 21/1/2
f 17/1/11 18/1/11 26/1/11 25/1/11
f 18/1/12 15/1/12 23/1/12 26/1/12
f 15/1/13 16/1/13 24/1/13 23/1/13
usemtl Window_Glass
f 23/1/2 24/1/2 25/1/2 26/1/2
s 1
usemtl Wall_Default
f 28/34/2 33/32/2 58/23/2 30/35/2
f 30/35/2 58/23/2 32/26/2 29/36/2
f 29/36/2 32/26/2 31/29/2 27/37/2
f 27/37/2 31/29/2 33/32/2 28/34/2
usemtl Wall_Dressing
f 38/2/14 39/3/15 54/4/16 57/5/17
f 41/6/18 38/2/14 57/7/17 37/8/19
f 45/9/20 40/10/21 36/11/22 48/12/23
f 43/13/24 44/14/25 51/15/26 35/16/27
f 44/14/25 45/9/20 48/12/23 51/17/26
f 39/3/15 42/18/28 34/19/29 54/4/16
f 40/10/21 41/6/18 37/20/19 36/11/22
f 46/21/30 47/22/31 58/23/2
f 49/24/32 50/25/33 32/26/2
f 52/27/34 53/28/35 31/29/2
f 55/30/36 56/31/37 33/32/2
f 46/21/30 39/3/15 38/2/14 47/22/31
f 52/27/34 45/9/20 44/14/25 53/28/35
f 40/10/21 50/25/33 49/24/32 41/6/18
f 42/18/28 56/31/37 55/30/36 43/13/24
f 38/2/14 41/6/18 49/24/32 47/22/31
f 42/18/28 43/13/24 35/33/27 34/19/29
f 42/18/28 39/3/15 46/21/30 56/31/37
f 40/10/21 45/9/20 52/27/34 50/25/33
f 44/14/25 43/13/24 55/30/36 53/28/35
f 32/26/2 58/23/2 47/22/31 49/24/32
f 31/29/2 32/26/2 50/25/33 52/27/34
f 33/32/2 31/29/2 53/28/35 55/30/36
f 58/23/2 33/32/2 56/31/37 46/21/30
usemtl Window_Sill
f 61/1/38 60/1/38 62/1/39 59/1/39
f 60/1/38 61/1/38 64/1/40 63/1/40
f 63/1/40 64/1/40 66/1/2 65/1/2
f 69/1/41 67/1/42 70/1/42 68/1/41
f 68/1/41 71/1/43 72/1/43 69/1/41
f 71/1/43 73/1/44 74/1/44 72/1/43
s 0
f 61/1/9 59/1/9 67/1/9 69/1/9
s 1
f 62/1/10 60/1/10 68/1/10 70/1/10
f 59/1/2 62/1/2 76/1/2 75/1/2
f 60/1/10 63/1/10 71/1/10 68/1/10
s 0
f 64/1/9 61/1/9 69/1/9 72/1/9
s 1
f 65/1/7 66/1/7 74/1/7 73/1/7
f 63/1/10 65/1/10 73/1/10 71/1/10
s 0
f 66/1/9 64/1/9 72/1/9 74/1/9
