# Blender 4.5.3 LTS
# www.blender.org
mtllib Wall_Window01_2.0x3.0.mtl
o Wall_Window01_2.0x3.0
v 0.500000 2.400000 -0.093724
v -0.500000 1.220000 -0.093724
v -0.500000 2.400000 -0.093724
v 0.500000 1.220000 -0.093724
v 0.456986 1.266413 -0.098887
v 0.456986 2.355947 -0.098887
v -0.456986 2.355947 -0.098887
v -0.456986 1.266413 -0.098887
v 0.462699 1.260711 -0.093724
v 0.462699 2.361649 -0.093724
v -0.462699 2.361649 -0.093724
v -0.462699 1.260711 -0.093724
v 0.500000 1.220000 -0.100000
v -0.500000 1.220000 -0.100000
v 0.416940 1.306460 -0.111980
v 0.416940 2.315900 -0.111980
v -0.416940 2.315900 -0.111980
v -0.416940 1.306460 -0.111980
v 0.456986 1.266413 -0.111980
v 0.456986 2.355947 -0.111980
v -0.456986 2.355947 -0.111980
v -0.456986 1.266413 -0.111980
v 0.413845 1.310205 -0.122390
v 0.413845 2.312155 -0.122390
v -0.413845 2.312155 -0.122390
v -0.413845 1.310205 -0.122390
v -1.000000 3.000000 0.000000
v 1.000000 3.000000 0.000000
v -1.000000 0.000000 0.000000
v 1.000000 0.000000 0.000000
v -0.672610 2.600000 0.000000
v -0.672610 1.000000 0.000000
v 0.672610 2.600000 0.000000
v 0.500000 2.395000 -0.100000
v 0.495000 2.400000 -0.100000
v -0.500000 1.205000 -0.100000
v -0.495000 1.200000 -0.100000
v 0.495000 1.200000 -0.005000
v 0.500000 1.205000 -0.005000
v -0.500000 1.205000 -0.005000
v -0.495000 1.200000 -0.005000
v 0.500000 2.395000 -0.005000
v 0.495000 2.400000 -0.005000
v -0.495000 2.400000 -0.005000
v -0.500000 2.395000 -0.005000
v 0.510000 1.200000 0.000000
v 0.500000 1.190000 0.000000
v -0.500000 2.395000 -0.100000
v -0.500000 1.190000 0.000000
v -0.510000 1.200000 0.000000
v -0.495000 2.400000 -0.100000
v -0.510000 2.400000 0.000000
v -0.500000 2.410000 0.000000
v 0.500000 1.205000 -0.100000
v 0.500000 2.410000 0.000000
v 0.510000 2.400000 0.000000
v 0.495000 1.200000 -0.100000
v 0.672610 1.000000 0.000000
v -0.522093 1.210000 -0.099496
v 0.522094 1.205083 0.036453
v -0.522093 1.205083 0.036453
v 0.522094 1.210000 -0.099496
v 0.522094 1.200858 0.040000
v -0.522093 1.200858 0.040000
v 0.522094 1.182580 0.040000
v -0.522093 1.182580 0.040000
v -0.522093 1.199042 -0.051295
v 0.522094 1.197034 0.031088
v -0.522093 1.197034 0.031088
v 0.522094 1.199042 -0.051295
v 0.522094 1.194464 0.032969
v -0.522093 1.194464 0.032969
v 0.522094 1.182580 0.032969
v -0.522093 1.182580 0.032969
v -0.522093 1.240000 -0.099496
v 0.522094 1.240000 -0.099496
vn -0.0000 1.0000 -0.0000
vn -0.0000 -0.0000 1.0000
vn -0.6705 -0.0000 0.7419
vn 0.6705 -0.0000 0.7419
vn -0.0000 0.6712 0.7413
vn -0.0000 -0.6712 0.7413
vn -0.0000 -1.0000 -0.0000
vn -0.0000 -0.9409 0.3386
vn -1.0000 -0.0000 -0.0000
vn 1.0000 -0.0000 -0.0000
vn 0.9586 -0.0000 0.2849
vn -0.0000 0.9409 0.3386
vn -0.9586 -0.0000 0.2849
vn -1.0000 -0.0001 -0.0000
vn 1.0000 -0.0001 -0.0000
vn -0.0001 -1.0000 -0.0000
vn -1.0000 0.0001 -0.0000
vn -0.0000 0.8986 0.4388
vn -0.0000 0.9993 0.0361
vn -0.0000 0.3422 0.9396
vn -0.0000 -0.8863 -0.4632
vn -0.0000 -0.9997 -0.0244
vn -0.0000 -0.3108 -0.9505
vn -0.0000 -0.0000 -1.0000
vt 0.000000 0.000000
vt 0.506253 0.393173
vt 0.527805 0.408220
vt 0.500727 0.419091
vt 0.495988 0.417630
vt 0.178520 0.392821
vt 0.507033 0.414337
vt 0.181785 0.410211
vt 0.160127 0.797294
vt 0.158010 0.404968
vt 0.181146 0.411924
vt 0.184668 0.783239
vt 0.515263 0.807826
vt 0.181232 0.807141
vt 0.180184 0.788013
vt 0.515052 0.788371
vt 0.188905 0.788527
vt 0.529145 0.799889
vt 0.507544 0.786707
vt 0.189928 0.421229
vt 0.533725 0.399487
vt 0.512259 0.387989
vt 0.578913 0.330392
vt 0.170921 0.384795
vt 0.151881 0.396333
vt 0.105877 0.327832
vt 0.154112 0.800252
vt 0.174107 0.814040
vt 0.106514 0.870156
vt 0.520525 0.814336
vt 0.535202 0.801269
vt 0.584388 0.871205
vt 0.501410 0.786580
vt 0.691677 0.999917
vt 0.679298 0.000083
vt 0.002601 0.000178
vt 0.000083 0.999917
s 0
usemtl Window_Frame
f 8/1/1 5/1/1 19/1/1 22/1/1
f 10/1/2 9/1/2 4/1/2 1/1/2
f 12/1/2 11/1/2 3/1/2 2/1/2
f 9/1/2 12/1/2 2/1/2 4/1/2
f 11/1/2 10/1/2 1/1/2 3/1/2
f 6/1/3 5/1/3 9/1/3 10/1/3
f 8/1/4 7/1/4 11/1/4 12/1/4
f 5/1/5 8/1/5 12/1/5 9/1/5
f 7/1/6 6/1/6 10/1/6 11/1/6
f 4/1/7 2/1/7 14/1/7 13/1/7
f 16/1/8 17/1/8 25/1/8 24/1/8
f 5/1/9 6/1/9 20/1/9 19/1/9
f 6/1/7 7/1/7 21/1/7 20/1/7
f 7/1/10 8/1/10 22/1/10 21/1/10
f 16/1/2 15/1/2 19/1/2 20/1/2
f 18/1/2 17/1/2 21/1/2 22/1/2
f 15/1/2 18/1/2 22/1/2 19/1/2
f 17/1/2 16/1/2 20/1/2 21/1/2
f 17/1/11 18/1/11 26/1/11 25/1/11
f 18/1/12 15/1/12 23/1/12 26/1/12
f 15/1/13 16/1/13 24/1/13 23/1/13
usemtl Window_Glass
f 23/1/2 24/1/2 25/1/2 26/1/2
s 1
usemtl Wall_Default
f 28/34/2 33/32/2 58/23/2 30/35/2
f 30/35/2 58/23/2 32/26/2 29/36/2
f 29/36/2 32/26/2 31/29/2 27/37/2
f 27/37/2 31/29/2 33/32/2 28/34/2
usemtl Wall_Dressing
f 38/2/1 39/3/14 54/4/9 57/5/1
f 41/6/1 38/2/1 57/7/1 37/8/1
f 45/9/10 40/10/15 36/11/10 48/12/10
f 43/13/7 44/14/16 51/15/7 35/16/7
f 44/14/16 45/9/10 48/12/10 51/17/7
f 39/3/14 42/18/17 34/19/9 54/4/9
f 40/10/15 41/6/1 37/20/1 36/11/10
f 46/21/2 47/22/2 58/23/2
f 49/24/2 50/25/2 32/26/2
f 52/27/2 53/28/2 31/29/2
f 55/30/2 56/31/2 33/32/2
f 46/21/2 39/3/14 38/2/1 47/22/2
f 52/27/2 45/9/10 44/14/16 53/28/2
f 40/10/15 50/25/2 49/24/2 41/6/1
f 42/18/17 56/31/2 55/30/2 43/13/7
f 38/2/1 41/6/1 49/24/2 47/22/2
f 42/18/17 43/13/7 35/33/7 34/19/9
f 42/18/17 39/3/14 46/21/2 56/31/2
f 40/10/15 45/9/10 52/27/2 50/25/2
f 44/14/16 43/13/7 55/30/2 53/28/2
f 32/26/2 58/23/2 47/22/2 49/24/2
f 31/29/2 32/26/2 50/25/2 52/27/2
f 33/32/2 31/29/2 53/28/2 55/30/2
f 58/23/2 33/32/2 56/31/2 46/21/2
usemtl Window_Sill
f 61/1/18 60/1/18 62/1/19 59/1/19
f 60/1/18 61/1/18 64/1/20 63/1/20
f 63/1/20 64/1/20 66/1/2 65/1/2
f 69/1/21 67/1/22 70/1/22 68/1/21
f 68/1/21 71/1/23 72/1/23 69/1/21
f 71/1/23 73/1/24 74/1/24 72/1/23
s 0
f 61/1/9 59/1/9 67/1/9 69/1/9
s 1
f 62/1/10 60/1/10 68/1/10 70/1/10
f 59/1/2 62/1/2 76/1/2 75/1/2
f 60/1/10 63/1/10 71/1/10 68/1/10
s 0
f 64/1/9 61/1/9 69/1/9 72/1/9
s 1
f 65/1/7 66/1/7 74/1/7 73/1/7
f 63/1/10 65/1/10 73/1/10 71/1/10
s 0
f 66/1/9 64/1/9 72/1/9 74/1/9
