# Blender 4.5.3 LTS
# www.blender.org
mtllib Wall_Door01_2.0x3.0.mtl
o Wall_Door01_2.0x3.0
v -1.000000 3.000000 0.000000
v 1.000000 3.000000 0.000000
v -1.000000 0.000000 0.000000
v 1.000000 0.000000 0.000000
v -1.000000 2.994590 0.000000
v -0.431206 0.000000 0.000000
v 1.000000 2.994913 0.000000
v -0.425638 2.458889 0.000000
v 0.667349 2.499043 0.000000
v 0.680827 0.000000 0.000000
vn -0.0000 -0.0000 1.0000
vt 0.000000 0.000000
s 0
usemtl Wall_Default
f 4/1/1 7/1/1 9/1/1 10/1/1
f 6/1/1 8/1/1 5/1/1 3/1/1
f 5/1/1 8/1/1 9/1/1 7/1/1 2/1/1 1/1/1
